<svg width="21" height="23" viewBox="0 0 21 23" version="1.1" xmlns="http://www.w3.org/2000/svg" xmlns:xlink="http://www.w3.org/1999/xlink">
<title>bookmark</title>
<desc>Created using Figma</desc>
<g id="Canvas" transform="matrix(1.5 0 0 1.5 -5859 -1153.5)">
<g id="bookmark">
<g id="Vector">
<use xlink:href="#path0_stroke" transform="translate(3909.5 770)"/>
</g>
<g id="Vector 2">
<use xlink:href="#path1_stroke" transform="translate(3907 770)"/>
</g>
</g>
</g>
<defs>
<path id="path0_stroke" d="M 0 0L 0 -0.5L -0.5 -0.5L -0.5 0L 0 0ZM 0 12L -0.5 12L -0.5 13.2071L 0.353553 12.3536L 0 12ZM 5 7L 5.35355 6.64645L 5 6.29289L 4.64645 6.64645L 5 7ZM 10 12L 9.64645 12.3536L 10.5 13.2071L 10.5 12L 10 12ZM 8 -0.5L 0 -0.5L 0 0.5L 8 0.5L 8 -0.5ZM -0.5 0L -0.5 12L 0.5 12L 0.5 0L -0.5 0ZM 0.353553 12.3536L 5.35355 7.35355L 4.64645 6.64645L -0.353553 11.6464L 0.353553 12.3536ZM 4.64645 7.35355L 9.64645 12.3536L 10.3536 11.6464L 5.35355 6.64645L 4.64645 7.35355ZM 10.5 12L 10.5 2L 9.5 2L 9.5 12L 10.5 12ZM 8 0.5C 8.82843 0.5 9.5 1.17157 9.5 2L 10.5 2C 10.5 0.619288 9.38071 -0.5 8 -0.5L 8 0.5Z"/>
<path id="path1_stroke" d="M 0 6L -0.5 6L -0.5 6.5L 0 6.5L 0 6ZM 2.5 -0.5L 2 -0.5L 2 0.5L 2.5 0.5L 2.5 -0.5ZM -0.5 2L -0.5 6L 0.5 6L 0.5 2L -0.5 2ZM 0 6.5L 2.5 6.5L 2.5 5.5L 0 5.5L 0 6.5ZM 2 -0.5C 0.619288 -0.5 -0.5 0.619288 -0.5 2L 0.5 2C 0.5 1.17157 1.17157 0.5 2 0.5L 2 -0.5Z"/>
</defs>
</svg>
