<svg width="24" height="26" viewBox="0 0 24 26" version="1.1" xmlns="http://www.w3.org/2000/svg" xmlns:xlink="http://www.w3.org/1999/xlink">
<title>font-big</title>
<desc>Created using Figma</desc>
<g id="Canvas" transform="matrix(1.5 0 0 1.5 -5857.5 -1311)">
<g id="font-big">
<g id="A">
<use xlink:href="#path0_fill" transform="translate(3911 874)"/>
</g>
<g id="Vector 5">
<use xlink:href="#path1_stroke" transform="translate(3906 878)"/>
</g>
</g>
</g>
<defs>
<path id="path0_fill" d="M 6.65137 10.4023L 2.48145 10.4023L 1.54492 13L 0.191406 13L 3.99219 3.04688L 5.14062 3.04688L 8.94824 13L 7.60156 13L 6.65137 10.4023ZM 2.87793 9.32227L 6.26172 9.32227L 4.56641 4.66699L 2.87793 9.32227Z"/>
<path id="path1_stroke" d="M 1.5 8.5C 1.5 8.77614 1.72386 9 2 9C 2.27614 9 2.5 8.77614 2.5 8.5L 1.5 8.5ZM 2 0L 2.41603 -0.27735C 2.32329 -0.416449 2.16718 -0.5 2 -0.5C 1.83282 -0.5 1.67671 -0.416449 1.58397 -0.27735L 2 0ZM -0.416025 2.72265C -0.569201 2.95241 -0.507114 3.26285 -0.27735 3.41603C -0.0475858 3.5692 0.262849 3.50711 0.416025 3.27735L -0.416025 2.72265ZM 3.58397 3.27735C 3.73715 3.50711 4.04759 3.5692 4.27735 3.41603C 4.50711 3.26285 4.5692 2.95241 4.41603 2.72265L 3.58397 3.27735ZM 2.5 8.5L 2.5 0L 1.5 0L 1.5 8.5L 2.5 8.5ZM 1.58397 -0.27735L -0.416025 2.72265L 0.416025 3.27735L 2.41603 0.27735L 1.58397 -0.27735ZM 4.41603 2.72265L 2.41603 -0.27735L 1.58397 0.27735L 3.58397 3.27735L 4.41603 2.72265Z"/>
</defs>
</svg>
