<svg width="24" height="26" viewBox="0 0 24 26" version="1.1" xmlns="http://www.w3.org/2000/svg" xmlns:xlink="http://www.w3.org/1999/xlink">
<title>font-small</title>
<desc>Created using Figma</desc>
<g id="Canvas" transform="matrix(1.5 0 0 1.5 -5857.5 -1353)">
<g id="font-small">
<g id="a">
<use xlink:href="#path0_fill" transform="translate(3911 902)"/>
</g>
<g id="Vector 5">
<use xlink:href="#path1_stroke" transform="matrix(-1 1.22465e-16 -1.22465e-16 -1 3910 914.5)"/>
</g>
</g>
</g>
<defs>
<path id="path0_fill" d="M 5.52344 13C 5.45052 12.8542 5.39128 12.5944 5.3457 12.2207C 4.75781 12.8314 4.05599 13.1367 3.24023 13.1367C 2.51107 13.1367 1.91178 12.9316 1.44238 12.5215C 0.977539 12.1068 0.745117 11.5827 0.745117 10.9492C 0.745117 10.179 1.03678 9.58203 1.62012 9.1582C 2.20801 8.72982 3.03288 8.51562 4.09473 8.51562L 5.3252 8.51562L 5.3252 7.93457C 5.3252 7.49251 5.19303 7.1416 4.92871 6.88184C 4.66439 6.61751 4.27474 6.48535 3.75977 6.48535C 3.30859 6.48535 2.93034 6.59928 2.625 6.82715C 2.31966 7.05501 2.16699 7.33073 2.16699 7.6543L 0.895508 7.6543C 0.895508 7.28516 1.02539 6.92969 1.28516 6.58789C 1.54948 6.24154 1.90495 5.9681 2.35156 5.76758C 2.80273 5.56706 3.2972 5.4668 3.83496 5.4668C 4.68717 5.4668 5.35482 5.68099 5.83789 6.10938C 6.32096 6.5332 6.57161 7.11882 6.58984 7.86621L 6.58984 11.2705C 6.58984 11.9495 6.67643 12.4896 6.84961 12.8906L 6.84961 13L 5.52344 13ZM 3.4248 12.0361C 3.82129 12.0361 4.19727 11.9336 4.55273 11.7285C 4.9082 11.5234 5.16569 11.2568 5.3252 10.9287L 5.3252 9.41113L 4.33398 9.41113C 2.78451 9.41113 2.00977 9.86458 2.00977 10.7715C 2.00977 11.168 2.14193 11.4779 2.40625 11.7012C 2.67057 11.9245 3.01009 12.0361 3.4248 12.0361Z"/>
<path id="path1_stroke" d="M 1.5 8.5C 1.5 8.77614 1.72386 9 2 9C 2.27614 9 2.5 8.77614 2.5 8.5L 1.5 8.5ZM 2 0L 2.41603 -0.27735C 2.32329 -0.416449 2.16718 -0.5 2 -0.5C 1.83282 -0.5 1.67671 -0.416449 1.58397 -0.27735L 2 0ZM -0.416025 2.72265C -0.569201 2.95241 -0.507114 3.26285 -0.27735 3.41603C -0.0475858 3.5692 0.262849 3.50711 0.416025 3.27735L -0.416025 2.72265ZM 3.58397 3.27735C 3.73715 3.50711 4.04759 3.5692 4.27735 3.41603C 4.50711 3.26285 4.5692 2.95241 4.41603 2.72265L 3.58397 3.27735ZM 2.5 8.5L 2.5 0L 1.5 0L 1.5 8.5L 2.5 8.5ZM 1.58397 -0.27735L -0.416025 2.72265L 0.416025 3.27735L 2.41603 0.27735L 1.58397 -0.27735ZM 4.41603 2.72265L 2.41603 -0.27735L 1.58397 0.27735L 3.58397 3.27735L 4.41603 2.72265Z"/>
</defs>
</svg>
